<svg width="3724" height="3998" viewBox="0 0 3724 3998" fill="none" xmlns="http://www.w3.org/2000/svg">
<g clip-path="url(#clip0_4_2)">
<path d="M1184.29 410.907C1382.72 261.067 1591.49 128.307 1799.88 30.2805L1862.33 0.933645L1924.81 30.2805C2133.17 128.267 2341.95 261.067 2540.37 410.907C2765.25 580.707 2977.75 773.574 3161.25 962.534L3251.56 1055.49L3154.72 1141.77C2952.73 1321.77 2745.01 1492.09 2538.36 1646.77C2334.89 1799 2132.43 1936.19 1937.29 2052.67L1862.33 2097.35L1787.43 2052.67C1592.24 1936.23 1389.76 1799 1186.31 1646.77C979.653 1492.11 771.933 1321.77 569.92 1141.77L473.107 1055.49L563.413 962.534C746.907 773.574 959.4 580.707 1184.29 410.907V410.907ZM1862.33 291.053C1692.83 376.88 1522.64 487.4 1359.13 610.894C1181.52 745.04 1012.43 893.734 860.76 1042.6C1025.28 1185.23 1193 1320.72 1360.08 1445.76C1529.45 1572.52 1698.2 1688.44 1862.33 1789.96C2026.48 1688.44 2195.27 1572.52 2364.59 1445.76C2531.67 1320.72 2699.37 1185.23 2863.91 1042.6C2712.24 893.734 2543.19 745.04 2365.53 610.894C2202.07 487.4 2031.85 376.88 1862.33 291.053" fill="#030A3D"/>
<path fill-rule="evenodd" clip-rule="evenodd" d="M1862.33 145.427C1434.04 346.827 1000.15 704.76 666.04 1048.87C1059.67 1399.59 1475.52 1713.24 1862.33 1944.08C2249.13 1713.24 2665 1399.59 3058.67 1048.87C2724.51 704.76 2290.63 346.827 1862.33 145.427Z" fill="#030A3D"/>
<path fill-rule="evenodd" clip-rule="evenodd" d="M1862.33 1944.08C2249.13 1713.24 2665 1399.59 3058.67 1048.87C2724.51 704.76 2290.63 346.827 1862.33 145.427C1811.21 287.507 1738.07 1527.2 1862.33 1944.08Z" fill="#07115E"/>
<path d="M1372.41 2276.17C1534.39 2408.44 1701.57 2526.76 1862.33 2633.43C2023.15 2526.76 2190.27 2408.44 2352.25 2276.17C2536.87 2125.35 2715.05 1955.91 2869.33 1764.2L3091.19 1488.39L3113.75 1841.73C3136.71 2201 3123.75 2522.88 3069.56 2812.57C3044.01 2949.21 3009.25 3078.63 2964.75 3201.24C2978.97 3190.25 2993.05 3178.99 3007.08 3167.51C3125.99 3070.35 3238.56 2956.92 3351.65 2818.21C3409.67 2491.96 3440.85 2094.85 3447.81 1693.79C3453.33 1372.8 3443.36 1049.79 3419.07 758.8C3211.88 986.734 2996.19 1204.36 2776.89 1403.85C2500.27 1655.43 2217 1879.21 1936.65 2059.84L1862.33 2107.76L1788.01 2059.84C1507.67 1879.21 1224.4 1655.43 947.826 1403.85C728.533 1204.36 512.787 986.734 305.6 758.8C281.333 1049.79 271.32 1372.8 276.88 1693.8C283.813 2094.85 315.04 2491.96 373 2818.21C485.587 2956.33 596.827 3068.85 713.387 3164.59C728.867 3177.33 744.493 3189.77 760.24 3201.99C714.387 3075.45 678.8 2941.52 652.92 2799.67C600.613 2513 588.333 2195.31 610.907 1841.73L633.48 1488.39L855.387 1764.2C1009.61 1955.91 1187.79 2125.35 1372.41 2276.17V2276.17ZM1787.47 2913.09C1597.19 2789.31 1395.04 2649.53 1199 2489.36C1088 2398.68 979.013 2301.56 875.307 2197.28C876.587 2396.51 892.16 2580.79 923.226 2751.21C970.253 3008.72 1053.12 3235.99 1176.4 3437.12C1184.19 3449.81 1191.08 3459.44 1196.37 3466.81C1235.61 3521.43 1260.75 3556.44 1219.88 3633.84C1166.92 3733.88 1106.85 3734.84 987.88 3671.99C825.6 3586.19 678.96 3491.84 538.92 3376.77C399.12 3261.87 267.827 3127.93 136.44 2963.19L115.427 2936.77L108.973 2902.36C44.3199 2555.61 9.68003 2128.52 2.25336 1698.11C-5.55997 1245.45 16.6933 788.014 65.6799 415.947L105.893 110.667L306.387 344.334C567.333 648.467 846.733 939.854 1133.08 1200.29C1374.32 1419.79 1619.81 1616.51 1862.33 1779.39C2104.91 1616.51 2350.35 1419.79 2591.59 1200.29C2877.93 939.854 3157.32 648.467 3418.28 344.334L3618.77 110.667L3658.99 415.947C3707.96 788.014 3730.23 1245.43 3722.41 1698.08C3714.97 2128.52 3680.33 2555.56 3615.68 2902.36L3609.25 2936.77L3588.21 2963.19C3454.61 3130.8 3322.07 3265.89 3181.55 3380.76C3041.72 3495.13 2892.92 3589.91 2726.32 3677.2C2614.11 3736.11 2561.73 3745.77 2503.83 3635.81C2463.56 3559.09 2486.24 3527.28 2523.37 3475.27C2527.63 3469.31 2533.09 3461.61 2537.93 3454.01C2664.89 3252.13 2750.43 3022.91 2799.25 2761.89C2831.72 2588.33 2847.97 2400.53 2849.36 2197.28C2745.65 2301.61 2636.63 2398.72 2525.67 2489.36C2329.63 2649.53 2127.48 2789.31 1937.19 2913.09L1862.33 2961.81L1787.47 2913.09" fill="#030A3D"/>
<path fill-rule="evenodd" clip-rule="evenodd" d="M1862.33 2797.87C1488.75 2554.81 1069.65 2249.81 748.24 1850.35C704.36 2537.07 794.827 3077.77 1058.99 3508.73C1094.61 3566.85 1129.11 3591.03 1051.95 3550.28C742.386 3386.6 495.36 3192.59 244.147 2877.55C113.96 2179.69 108.08 1146.51 201.947 433.72C714.773 1031.39 1296.36 1579.37 1862.33 1944.08C2428.33 1579.37 3009.89 1031.39 3522.77 433.72C3616.59 1146.51 3610.75 2179.69 3480.55 2877.55C3226.65 3195.93 2977.07 3390.75 2662.77 3555.48C2603.92 3586.4 2625.28 3573.23 2654.23 3527.21C2927.24 3093.19 3020.95 2546.89 2976.43 1850.35C2655.01 2249.81 2235.96 2554.81 1862.33 2797.87" fill="#5FD1F5"/>
<path fill-rule="evenodd" clip-rule="evenodd" d="M1862.33 1944.08C2428.33 1579.37 3009.89 1031.39 3522.77 433.72C3616.59 1146.51 3610.75 2179.69 3480.55 2877.55C3518.16 2201.48 3533.13 1512.25 3451.73 767.24C2892.8 1304.27 2371.21 1688.47 1862.33 1944.08Z" fill="white"/>
<path fill-rule="evenodd" clip-rule="evenodd" d="M1862.33 2797.87C1488.75 2554.81 1069.65 2249.81 748.24 1850.35C702.04 2573.52 804.787 3134.72 1102.53 3576.52C768.987 3407.16 508.88 3209.59 244.147 2877.55C144.467 2156.21 178.88 1371.31 272.733 658.494C785.587 1256.19 1296.36 1722.44 1862.33 2087.15V2797.87Z" fill="#4189E0"/>
<path d="M1529.97 3658.55C1641.76 3703.07 1752.44 3739.56 1862.33 3769.91C1972.25 3739.56 2082.96 3703.07 2194.69 3658.55C2308.85 3613.07 2425.47 3558.72 2545.05 3493.44C2678.17 3290.49 2768.39 3074 2820.55 2826.71C2861.57 2632.32 2879.52 2418.07 2876.67 2175.81C2755 2295.83 2628.51 2405.05 2500.11 2504.67C2307.43 2654.11 2109.63 2782.35 1917.05 2893.12L1862.33 2924.56L1807.61 2893.12C1615.05 2782.35 1417.24 2654.11 1224.61 2504.67C1096.19 2405.05 969.667 2295.83 848 2175.81C845.16 2418.07 863.093 2632.32 904.107 2826.71C956.267 3074 1046.48 3290.49 1179.67 3493.44C1299.2 3558.72 1415.81 3613.07 1529.97 3658.55V3658.55ZM1834.33 3990.27C1708.77 3956.8 1580.57 3915.2 1448.99 3862.76C1317.84 3810.55 1184.68 3747.96 1049.13 3672.57L1025.65 3659.51L1011.2 3638.09C854.427 3405.52 748.987 3157.15 688.707 2871.55C629.44 2590.61 614.667 2275.05 638.373 1903.76L655.253 1639.31L830.52 1837.83C995.587 2024.89 1175.05 2187.93 1359.01 2330.63C1526 2460.13 1696.05 2572.55 1862.33 2670.73C2028.61 2572.55 2198.72 2460.13 2365.69 2330.63C2549.61 2187.93 2729.07 2024.89 2894.19 1837.83L3069.4 1639.31L3086.28 1903.76C3109.99 2275.05 3095.23 2590.61 3035.97 2871.55C2975.73 3157.15 2870.24 3405.52 2713.45 3638.09L2699.01 3659.51L2675.52 3672.57C2539.95 3747.96 2406.87 3810.55 2275.71 3862.76C2144.05 3915.2 2015.92 3956.8 1890.33 3990.27L1862.33 3997.76L1834.33 3990.27Z" fill="#030A3D"/>
<path fill-rule="evenodd" clip-rule="evenodd" d="M1862.33 3883.91C1617.69 3818.67 1365.99 3723.04 1102.53 3576.52C804.787 3134.72 702.04 2633.87 748.24 1910.67C1088.4 2296.03 1486.23 2581.59 1862.33 2797.87C2238.47 2581.59 2636.27 2296.03 2976.43 1910.67C3022.65 2633.87 2919.91 3134.72 2622.13 3576.52C2358.68 3723.04 2106.97 3818.67 1862.33 3883.91Z" fill="white"/>
<path fill-rule="evenodd" clip-rule="evenodd" d="M1862.33 3883.91C1617.69 3818.67 1365.99 3723.04 1102.53 3576.52C804.787 3134.72 702.04 2633.87 748.24 1910.67C1088.4 2296.03 1486.23 2581.59 1862.33 2797.87V3883.91Z" fill="#9CE8FF"/>
<path fill-rule="evenodd" clip-rule="evenodd" d="M856.88 1222.61L1067.47 1808.6L1051.11 1391.15L856.88 1222.61Z" fill="#5FD1F5"/>
<path fill-rule="evenodd" clip-rule="evenodd" d="M389.48 2250.29L157 1545.64L176.187 1979.08L389.48 2250.29Z" fill="#5FD1F5"/>
<path d="M1215.41 2498.17C1157.44 2452.96 1099.93 2405.89 1043.21 2356.87C1056.31 2453.87 1082.19 2549.87 1120.12 2632.37C1171.92 2745.16 1244.27 2828.63 1332.25 2840.31C1368.35 2845.09 1410.35 2826.97 1448.05 2795.05C1474.36 2772.79 1497.44 2744.73 1514.88 2713.13C1414.64 2646.77 1314.37 2575.27 1215.41 2498.17V2498.17ZM1005.73 2023.44C1117.51 2133.36 1233.32 2233.51 1350.68 2324.99C1468.87 2417.05 1588.79 2500.63 1707.89 2576.59L1773.99 2618.67L1755.71 2694.63C1730 2801.52 1667.84 2897.36 1590.23 2963.03C1507.29 3033.25 1404.55 3071.61 1303.79 3058.28C1130.36 3035.28 1002.01 2901.72 920.2 2723.75C833.867 2535.84 798.306 2292.69 819.16 2090.6L842.667 1863.08L1005.73 2023.44Z" fill="#030A3D"/>
<path fill-rule="evenodd" clip-rule="evenodd" d="M928.6 2101.87C1157.61 2327.01 1404.65 2513.48 1648.88 2669.19C1608.97 2834.99 1455.6 2967.49 1318 2949.27C1034 2911.6 893.347 2443.36 928.6 2101.87Z" fill="#FAA823"/>
<path fill-rule="evenodd" clip-rule="evenodd" d="M1005.81 2175.71C1202.64 2358.88 1410.67 2514.97 1617.31 2648.95C1559.83 2759.45 1453.68 2835.63 1356.36 2821.93C1142.21 2791.75 1019.55 2469.92 1005.81 2175.71" fill="#FCD421"/>
<path d="M2373.99 2324.99C2491.35 2233.51 2607.16 2133.36 2718.99 2023.44L2882.03 1863.08L2905.51 2090.6C2926.39 2292.69 2890.79 2535.84 2804.45 2723.75C2722.71 2901.67 2594.29 3035.28 2420.84 3058.28C2320.12 3071.61 2217.37 3033.25 2134.44 2963.03C2056.83 2897.36 1994.72 2801.52 1968.96 2694.63L1950.68 2618.67L2016.77 2576.59C2135.92 2500.63 2255.83 2417.05 2373.99 2324.99V2324.99ZM2681.48 2356.87C2624.73 2405.89 2567.25 2452.96 2509.24 2498.17C2410.32 2575.27 2310.01 2646.77 2209.83 2713.13C2227.25 2744.73 2250.36 2772.79 2276.6 2795.05C2314.37 2826.97 2356.35 2845.09 2392.41 2840.31C2480.4 2828.63 2552.75 2745.16 2604.55 2632.37C2642.48 2549.87 2668.36 2453.93 2681.48 2356.87" fill="#030A3D"/>
<path fill-rule="evenodd" clip-rule="evenodd" d="M2796.07 2101.87C2567.05 2327.01 2320 2513.48 2075.84 2669.19C2115.75 2834.99 2269.07 2967.49 2406.65 2949.27C2690.72 2911.6 2831.35 2443.36 2796.07 2101.87" fill="#FAA823"/>
<path fill-rule="evenodd" clip-rule="evenodd" d="M2718.88 2175.71C2522.04 2358.88 2314 2514.97 2107.35 2648.95C2164.83 2759.45 2270.97 2835.63 2368.31 2821.93C2582.44 2791.75 2705.12 2469.92 2718.88 2175.71Z" fill="#FCD421"/>
<path d="M2593.71 2939.28L2673.03 3064.17C2707.93 3037.4 2745.28 3004.04 2781.61 2968.08C2841.16 2909.21 2897.37 2844.24 2936.48 2790.16L3025.67 2854.33C2983.01 2913.41 2922.35 2983.59 2858.76 3046.49C2800.84 3103.71 2739.87 3155.61 2686.48 3189.03L2640.2 3217.92L2610.87 3171.75L2500.69 2998.29L2593.71 2939.28" fill="#030A3D"/>
</g>
<defs>
<clipPath id="clip0_4_2">
<rect width="3723.22" height="3996.83" fill="white" transform="translate(0.723145 0.933594)"/>
</clipPath>
</defs>
</svg>
