<?xml version="1.0" encoding="utf-8"?>
<!-- Generator: Adobe Illustrator 25.3.1, SVG Export Plug-In . SVG Version: 6.00 Build 0)  -->
<svg version="1.1" id="Capa_1" xmlns="http://www.w3.org/2000/svg" xmlns:xlink="http://www.w3.org/1999/xlink" x="0px" y="0px"
	 viewBox="0 0 291.2 191.6" style="enable-background:new 0 0 291.2 191.6;" xml:space="preserve">
<style type="text/css">
	.st0{fill:#FFFFFF;}
</style>
<g>
	<polygon class="st0" points="100.1,127.1 81.9,127.1 81.9,145.3 64.5,145.3 64.5,127.1 46.3,127.1 46.3,109.8 64.5,109.8 
		64.5,91.6 81.9,91.6 81.9,109.8 100.1,109.8 	"/>
	<path class="st0" d="M198,128.2c-5.4,0-9.8-4.4-9.8-9.8c0-5.4,4.4-9.8,9.8-9.8c5.4,0,9.8,4.4,9.8,9.8
		C207.7,123.8,203.3,128.2,198,128.2z"/>
	<path class="st0" d="M218,148.2c-5.4,0-9.8-4.4-9.8-9.8c0-5.4,4.4-9.8,9.8-9.8c5.4,0,9.8,4.4,9.8,9.8
		C227.8,143.9,223.4,148.2,218,148.2z"/>
	<path class="st0" d="M218,108.1c-5.4,0-9.8-4.4-9.8-9.8c0-5.4,4.4-9.8,9.8-9.8c5.4,0,9.8,4.4,9.8,9.8
		C227.8,103.8,223.4,108.1,218,108.1z"/>
	<path class="st0" d="M238.1,128.2c-5.4,0-9.8-4.4-9.8-9.8c0-5.4,4.4-9.8,9.8-9.8c5.4,0,9.8,4.4,9.8,9.8
		C247.8,123.8,243.4,128.2,238.1,128.2z"/>
	<path class="st0" d="M218,45.2c-15.2,0-29.7,4.7-41.7,13c0-22.7-5.4-43.7-16.4-58.3c38,88.6-52.4,226.5-129.1,163
		c-11.8-11.2-19.2-27-19.2-44.6c0-33.9,27.6-61.5,61.5-61.5c22.9,0,43.8,12.6,54.5,33l1.6,3.1h22.3c1.6-4.3,3-8.7,4.1-13.1
		c-0.3,0.5-0.6,0.9-0.9,1.4h-18.6c-13.1-22.4-37-36.1-63.1-36.1C32.8,45.2,0,78.1,0,118.4c0,40.4,32.8,73.2,73.2,73.2
		c11.7,0,22.9-2.8,33-7.8h0c14-6.7,26-16.5,35.8-28.3h12.8c13.1,22.4,37,36.1,63.1,36.1c40.4,0,73.2-32.8,73.2-73.2
		C291.2,78.1,258.4,45.2,218,45.2z M218,179.9c-22.9,0-43.8-12.6-54.5-33l-1.6-3.1h-11.1c13.8-20.8,22.1-45.7,24.7-69.8
		c11.3-10.8,26.4-17.1,42.5-17.1c33.9,0,61.5,27.6,61.5,61.5C279.5,152.3,251.9,179.9,218,179.9z"/>
</g>
</svg>
